<?xml version="1.0" encoding="UTF-8"?>
<svg version="1.1" xmlns="http://www.w3.org/2000/svg" width="512" height="512">
<path d="M0 0 C48.54918537 -1.77251905 90.6778187 16.36091708 126.33740234 48.39501953 C157.34457183 78.82716305 175.77961102 121.66767974 176.31738281 165.08764648 C176.44359747 214.42644197 158.30643166 256.58407422 123.72412109 291.45361328 C123.18013672 291.99115234 122.63615234 292.52869141 122.07568359 293.08251953 C123.61002954 296.71479052 125.77834964 299.03426487 128.5546875 301.8087616 C129.01234308 302.26883159 129.46999866 302.72890159 129.9415226 303.20291311 C131.47371355 304.74073236 133.01293815 306.27130909 134.55224609 307.80200195 C135.65315282 308.90398175 136.75362641 310.0063944 137.85369873 311.10920715 C140.84078655 314.10114152 143.8340858 317.08678979 146.82866669 320.07122207 C149.95937388 323.19314815 153.08481032 326.32034264 156.2109375 329.44685364 C161.45997522 334.6949549 166.71287149 339.9391687 171.96826172 345.1809082 C178.04962103 351.24652995 184.1257258 357.31737461 190.19885445 363.39123648 C196.03660886 369.22960057 201.87721252 375.06510508 207.71942139 380.89901161 C210.20820396 383.38425813 212.6961305 385.87035702 215.18341064 388.35710716 C218.10961757 391.28231182 221.03835357 394.20496068 223.96909332 397.1256237 C225.04631103 398.1999133 226.12267703 399.27505767 227.19814301 400.35110092 C228.66202379 401.8154702 230.12892696 403.27674156 231.59667969 404.73722839 C232.41816498 405.55703784 233.23965027 406.37684729 234.08602905 407.22149944 C236.5681881 409.5431828 237.54412991 410.03629747 240.95068359 410.33251953 C244.49799797 410.04873438 245.74431105 409.7592806 248.07568359 407.08251953 C249.43073782 403.85857061 249.43073782 403.85857061 249.07568359 400.08251953 C245.57719385 393.93930513 240.19415605 388.942773 235.19018555 384.03344727 C234.42359619 383.27299103 233.65700684 382.51253479 232.8671875 381.72903442 C231.21447284 380.09054636 229.55951233 378.45432111 227.90252113 376.820158 C225.27870768 374.23132618 222.6622175 371.63529532 220.0476532 369.03712463 C212.61716555 361.65537958 205.17540958 354.28507165 197.72485352 346.92358398 C193.15775443 342.41007948 188.60046912 337.88685642 184.04906273 333.35753059 C182.3165035 331.63737136 180.58016044 329.92101443 178.8399601 328.20858574 C176.40843215 325.81554041 173.98952265 323.41037888 171.57299805 321.00219727 C170.8545018 320.30122421 170.13600555 319.60025116 169.39573669 318.8780365 C164.87111828 314.33554131 161.85347116 310.35272578 160.67724609 303.89501953 C160.75706525 297.72233806 162.34692661 293.13833865 166.38818359 288.33251953 C171.60046551 283.96874863 175.65518855 282.75134367 182.31787109 282.58642578 C190.65211189 284.08564473 196.02520818 289.4455075 201.76733398 295.22485352 C202.59606522 296.04336288 203.42479645 296.86187225 204.27864075 297.70518494 C207.00392152 300.40276297 209.71418608 303.11484606 212.42333984 305.82861328 C213.84217515 307.24163679 215.26101597 308.654655 216.68053335 310.0669933 C221.14223411 314.50655916 225.59326505 318.95662605 230.0378418 323.41333008 C234.59774595 327.98528622 239.17563493 332.53863906 243.76284033 337.08318847 C247.72137682 341.00628482 251.6679765 344.94112306 255.60559267 348.8852163 C257.9482054 351.23142496 260.29616725 353.57175148 262.65324593 355.90344048 C281.52756763 374.59932968 281.52756763 374.59932968 286.07568359 386.08251953 C286.35497208 386.78666489 286.63426056 387.49081024 286.92201233 388.21629333 C290.70295471 398.9528893 288.48549433 413.00488456 284.07568359 423.08251953 C282.29710323 426.28301307 280.30332232 429.18169328 278.07568359 432.08251953 C277.49818359 432.94876953 276.92068359 433.81501953 276.32568359 434.70751953 C268.5298432 442.93646217 257.53768127 448.62733767 246.16943359 449.32080078 C225.36469568 449.82496537 213.82740383 442.03070297 199.07568359 428.08251953 C195.21455331 424.34087277 191.41029507 420.54485314 187.61572266 416.73608398 C186.53043787 415.65051613 185.44493086 414.56517039 184.35922241 413.48002625 C181.45282533 410.57391247 178.54949063 407.66475757 175.64675617 404.75498605 C172.59768312 401.69960072 169.54571921 398.64710559 166.49407959 395.59428406 C160.73382755 389.83094168 154.97612616 384.06505831 149.21936965 378.29822463 C142.65773504 371.72535698 136.09321195 365.15537733 129.52846193 358.58562148 C116.04101865 345.08776589 102.55715083 331.58634378 89.07568359 318.08251953 C85.21738534 319.33506461 81.55647848 320.73158338 77.8762207 322.44287109 C38.32008495 340.71883898 -7.89896242 342.32272505 -48.92431641 328.08251953 C-83.92413994 315.17883255 -113.31798815 292.20745323 -133.92431641 261.08251953 C-134.50028564 260.21916992 -134.50028564 260.21916992 -135.08789062 259.33837891 C-158.45256628 223.82805736 -166.61800539 178.24362563 -158.4765625 136.63720703 C-150.5695698 100.05950076 -132.02790626 65.20151665 -102.92431641 41.08251953 C-102.17279297 40.41994141 -101.42126953 39.75736328 -100.64697266 39.07470703 C-72.85406676 15.17880335 -36.52310583 1.56620271 0 0 Z M-85.61181641 77.33251953 C-110.05319234 102.00705213 -122.60477139 136.01053879 -122.94726562 170.44677734 C-122.67613264 201.58668901 -110.96755073 230.51167596 -90.92431641 254.08251953 C-90.30041016 254.84048828 -89.67650391 255.59845703 -89.03369141 256.37939453 C-71.45275926 277.10488364 -44.4020156 291.66508747 -17.92431641 297.08251953 C-16.41224609 297.39189453 -16.41224609 297.39189453 -14.86962891 297.70751953 C18.62678892 303.49107369 52.64346681 295.29925399 81.07568359 277.08251953 C84.94042433 274.28205385 88.51637785 271.25834924 92.07568359 268.08251953 C92.97673828 267.32455078 93.87779297 266.56658203 94.80615234 265.78564453 C119.90619886 244.11959591 135.35282949 211.55117154 137.95068359 178.64501953 C139.69913849 142.80169414 128.62789084 108.02329293 104.37451172 81.20117188 C96.35248329 72.57684368 88.14675277 65.25668165 78.07568359 59.08251953 C76.97869141 58.39802734 75.88169922 57.71353516 74.75146484 57.00830078 C22.67198611 25.83187394 -42.58366476 35.21381362 -85.61181641 77.33251953 Z " fill="#C5CBD9" transform="translate(191.92431640625,30.91748046875)"/>
<path d="M0 0 C4.10091168 3.65813972 6.08193221 7.58340002 7 13 C7.08492299 19.0719941 5.98057809 23.24542062 2 28 C-3.39400521 32.97908173 -8.40645188 34.20051404 -15.5625 34.875 C-27.69014303 36.24373661 -39.85813254 39.72556888 -48.68359375 48.71484375 C-50 50 -50 50 -52 50 C-52.26167969 50.56847656 -52.52335937 51.13695312 -52.79296875 51.72265625 C-54.09352479 54.17645615 -55.63198052 56.22785908 -57.3125 58.4375 C-63.81365466 67.72873353 -66.22378403 76.93698641 -67.27172852 88.02661133 C-67.98466809 95.05071384 -69.55853141 100.00389003 -74.875 104.875 C-80.11273248 108.43665808 -84.67520565 109.73789267 -91 109 C-97.44025749 106.68071098 -101.90514551 104.18970898 -105 98 C-110.30499398 82.08501806 -103.75471505 62.51071728 -97 48 C-85.22870044 24.71145771 -65.51545955 8.23359386 -41 0 C-28.79619222 -3.61017515 -11.01342223 -8.61340286 0 0 Z " fill="#C5CBD9" transform="translate(212,110)"/>
</svg>
