<?xml version="1.0" encoding="UTF-8" standalone="no"?>
<!-- Created with Inkscape (http://www.inkscape.org/) -->

<svg
   width="141.55206mm"
   height="24.358093mm"
   viewBox="0 0 141.55206 24.358093"
   version="1.1"
   id="svg1"
   xml:space="preserve"
   xmlns="http://www.w3.org/2000/svg"
   xmlns:svg="http://www.w3.org/2000/svg"><defs
     id="defs1" /><g
     id="layer1"
     transform="translate(-32.877962,-146.40955)"><g
       style="clip-rule:evenodd;fill-rule:evenodd;image-rendering:optimizeQuality;shape-rendering:geometricPrecision;text-rendering:geometricPrecision"
       id="g58"
       transform="matrix(0.26458333,0,0,0.26458333,-30.29479,13.096877)"><g
         id="g1" /><g
         id="g2" /><g
         id="g3" /><g
         id="g4" /><g
         id="g5" /><g
         id="g6" /><g
         id="g9" /><g
         id="g10" /><g
         id="g11" /><g
         id="g13" /><g
         id="g15" /><g
         id="g16" /><g
         id="g18" /><g
         id="g20" /><g
         id="g22" /><g
         id="g23" /><g
         id="g26" /><g
         id="g27" /><g
         id="g28" /><g
         id="g30" /><g
         id="g32" /><g
         id="g33"
         style="fill:#000000"
         transform="translate(5.563914,-175.2633)"><path
           id="path33"
           style="opacity:1;fill:#000000"
           d="m 586.5,543.5 c 1.667,0 3.333,0 5,0 0,1 0,2 0,3 2.361,0.174 4.694,0.507 7,1 0.128,2.155 -0.372,4.155 -1.5,6 -4.109,-0.029 -5.943,1.971 -5.5,6 -3.773,-0.237 -7.44,0.263 -11,1.5 0.333,0.333 0.667,0.667 1,1 -4.7,0.52 -8.7,2.353 -12,5.5 -13.502,5.208 -27.502,7.875 -42,8 0,-2.333 0,-4.667 0,-7 -10.667,-0.333 -21.333,-0.667 -32,-1 0,2 0,4 0,6 8.028,-0.331 16.028,0.002 24,1 -8.818,1.725 -17.818,1.892 -27,0.5 -4.498,-3.044 -9.498,-4.711 -15,-5 0.667,-0.333 1.333,-0.667 2,-1 -3.961,-0.113 -7.961,-1.113 -12,-3 4.073,-0.788 8.073,-1.788 12,-3 -5.883,-0.971 -5.383,-2.138 1.5,-3.5 2.779,1.408 5.612,2.908 8.5,4.5 -0.667,0.333 -1.333,0.667 -2,1 1.877,0.576 3.711,0.409 5.5,-0.5 1.011,0.392 1.511,1.059 1.5,2 0.886,-0.825 1.219,-1.825 1,-3 14.715,-0.317 29.382,0.017 44,1 3.54,-3.482 7.54,-6.148 12,-8 12.042,-3.347 23.708,-7.68 35,-13 z m 83,-63 c -8.858,19.524 -21.191,36.524 -37,51 -1.337,-0.815 -2.337,-1.982 -3,-3.5 -1.973,-0.495 -3.973,-0.662 -6,-0.5 -0.55,-5.821 -2.717,-6.154 -6.5,-1 -0.579,-1.428 -0.412,-2.762 0.5,-4 8.613,-9.202 16.28,-19.202 23,-30 3.634,-3.911 6.801,-8.244 9.5,-13 2.146,-3.975 3.98,-7.975 5.5,-12 0.617,-0.111 1.117,-0.444 1.5,-1 2.684,4.035 4.851,8.368 6.5,13 -3.667,0 -7.333,0 -11,0 -0.555,4.212 0.445,7.879 3,11 -0.726,2.376 -2.059,4.376 -4,6 0.82,1.611 2.154,2.278 4,2 0,-1 0,-2 0,-3 1.333,0 2.667,0 4,0 0.338,-2.511 0.338,-4.845 0,-7 4.194,-1.026 6.36,-3.693 6.5,-8 1.117,-0.236 2.284,-0.236 3.5,0 z m -46,10 c -1.915,-1.079 -3.915,-2.079 -6,-3 -1.196,0.346 -1.196,0.846 0,1.5 -1.992,0.574 -3.492,1.741 -4.5,3.5 -0.333,-0.333 -0.667,-0.667 -1,-1 -1.019,1.187 -2.186,2.187 -3.5,3 -4.983,-1.213 -5.65,-0.38 -2,2.5 -0.949,0.617 -1.782,0.451 -2.5,-0.5 -2.795,2.003 -5.962,3.337 -9.5,4 -0.667,-0.333 -1.333,-0.667 -2,-1 -2.276,0.713 -4.609,1.213 -7,1.5 -3.348,5.393 -8.014,6.893 -14,4.5 -1.333,0.333 -2.667,0.667 -4,1 0.209,0.586 0.543,1.086 1,1.5 -9.195,0.962 -18.361,2.128 -27.5,3.5 -2.328,-0.317 -4.161,-1.484 -5.5,-3.5 0.333,-0.333 0.667,-0.667 1,-1 -2.706,-1.908 -5.706,-2.741 -9,-2.5 0,-3 0,-6 0,-9 9.182,0.327 18.182,-0.007 27,-1 14.064,-1.266 27.73,-4.266 41,-9 4.525,-0.654 9.025,-1.654 13.5,-3 2.261,-0.061 4.261,0.606 6,2 2.626,-5.487 6.793,-7.154 12.5,-5 0.262,1.478 -0.071,2.811 -1,4 -2.593,1.571 -3.593,3.904 -3,7 z m -21,-238 c 0.555,2.229 1.889,3.895 4,5 0.798,1.578 1.298,3.244 1.5,5 0.893,-1.211 1.726,-1.211 2.5,0 -1.225,3.16 -2.725,3.494 -4.5,1 -4.455,-1.72 -8.955,-2.053 -13.5,-1 -0.974,-2.243 -1.308,-4.576 -1,-7 -2.104,0.299 -4.104,-0.034 -6,-1 -3.078,-2.534 -6.411,-4.534 -10,-6 -6.099,-0.265 -11.266,-2.598 -15.5,-7 -0.49,1.293 -0.657,2.627 -0.5,4 -3.393,0.438 -6.393,-0.395 -9,-2.5 0.949,-0.617 1.782,-0.451 2.5,0.5 0.309,-1.266 0.809,-2.433 1.5,-3.5 -3.652,-0.499 -7.318,-0.665 -11,-0.5 0,-1 0,-2 0,-3 -10.692,-0.673 -21.359,-0.673 -32,0 0,1.667 0,3.333 0,5 -5.294,0.182 -5.294,0.682 0,1.5 -6.966,0.971 -13.799,0.471 -20.5,-1.5 -3.056,0.577 -6.056,1.243 -9,2 -2.243,-1.782 -4.743,-2.282 -7.5,-1.5 -0.288,2.238 -1.622,4.071 -4,5.5 -3.969,1.425 -8.302,2.759 -13,4 -1.353,1.024 -2.02,2.357 -2,4 -2.667,0 -5.333,0 -8,0 0,1 0,2 0,3 -5.534,0.051 -10.867,1.051 -16,3 0.149,-1.052 -0.017,-2.052 -0.5,-3 -1.778,4.584 -4.278,8.751 -7.5,12.5 -5.309,1.388 -8.309,4.221 -9,8.5 -2.804,0.812 -5.637,1.812 -8.5,3 -0.5,-0.167 -1,-0.333 -1.5,-0.5 0.924,-0.85 0.924,-1.85 0,-3 0.893,-2.969 2.226,-5.636 4,-8 0.294,-1.654 -0.373,-3.154 -2,-4.5 2.395,-3.361 5.395,-6.028 9,-8 10.92,-7.96 22.587,-14.627 35,-20 25.316,-10.457 51.649,-14.291 79,-11.5 26.687,2.282 51.02,10.782 73,25.5 z m -59,1 c 5.574,1.953 11.574,2.62 18,2 -1.41,3.45 -2.076,7.116 -2,11 -10.641,0.673 -21.308,0.673 -32,0 0.262,-1.478 -0.071,-2.811 -1,-4 -0.565,1.392 -1.565,3.059 -3,5 -3.945,0.991 -7.945,1.324 -12,1 0,1 0,2 0,3 3.35,-0.165 6.683,0.002 10,0.5 -5.425,2.781 -11.092,5.114 -17,7 -2.517,2.251 -5.517,3.084 -9,2.5 0,1.333 0,2.667 0,4 0,0.667 -0.333,1 -1,1 -2.319,0.667 -4.653,0.834 -7,0.5 0.78,-1.073 0.613,-2.24 -0.5,-3.5 -2.063,2.061 -3.73,4.394 -5,7 -3.457,-0.642 -6.79,0.024 -10,2 -0.333,-0.667 -0.667,-1.333 -1,-2 -1.5,1.5 -3,3 -4.5,4.5 0.667,0.333 1.333,0.667 2,1 -2.474,3.072 -4.974,2.905 -7.5,-0.5 -0.2,-1.82 -1.034,-3.153 -2.5,-4 23.337,-23.461 51.671,-36.128 85,-38 z m 59,-1 c 9.144,5.752 17.81,12.252 26,19.5 45.676,40.349 64.509,90.849 56.5,151.5 -1.641,20.071 -6.808,39.071 -15.5,57 -1.216,-0.236 -2.383,-0.236 -3.5,0 -0.14,4.307 -2.306,6.974 -6.5,8 0.338,2.155 0.338,4.489 0,7 -1.333,0 -2.667,0 -4,0 0,1 0,2 0,3 -1.846,0.278 -3.18,-0.389 -4,-2 1.941,-1.624 3.274,-3.624 4,-6 -2.555,-3.121 -3.555,-6.788 -3,-11 3.667,0 7.333,0 11,0 -1.649,-4.632 -3.816,-8.965 -6.5,-13 -0.383,0.556 -0.883,0.889 -1.5,1 1.176,-2.653 2.009,-5.319 2.5,-8 -4.671,5.503 -9.504,10.836 -14.5,16 -6.309,5.487 -12.976,10.487 -20,15 -0.593,-3.096 0.407,-5.429 3,-7 0.929,-1.189 1.262,-2.522 1,-4 -5.707,-2.154 -9.874,-0.487 -12.5,5 -1.739,-1.394 -3.739,-2.061 -6,-2 -4.475,1.346 -8.975,2.346 -13.5,3 8.926,-4.466 17.593,-9.466 26,-15 12.135,-10.966 22.635,-23.3 31.5,-37 6.309,-10.599 10.142,-21.933 11.5,-34 0.41,7.456 -0.257,14.789 -2,22 1.716,3.91 4.716,5.577 9,5 0,7 0,14 0,21 1.667,0 3.333,0 5,0 0.9,-4.301 2.233,-8.468 4,-12.5 -0.085,-1.107 -0.419,-2.107 -1,-3 1.201,-0.903 2.035,-2.069 2.5,-3.5 0.937,-19.116 1.27,-38.116 1,-57 -0.862,-1.587 -1.529,-3.254 -2,-5 -0.893,1.211 -1.726,1.211 -2.5,0 0.431,-0.793 0.765,-1.627 1,-2.5 -1.697,-3.274 -2.864,-6.774 -3.5,-10.5 0.072,-5.26 -0.928,-10.26 -3,-15 -0.414,0.457 -0.914,0.791 -1.5,1 -2.399,-4.809 -5.732,-8.809 -10,-12 -0.333,0.333 -0.667,0.667 -1,1 1,1.333 2,2.667 3,4 -2.065,1.463 -3.065,3.463 -3,6 -0.352,2.424 0.648,3.924 3,4.5 0.272,3.559 -0.061,6.893 -1,10 1.719,3.957 2.386,8.124 2,12.5 -2.376,-9.804 -5.543,-19.471 -9.5,-29 -3.518,-8.388 -8.018,-16.055 -13.5,-23 -11.403,-15.891 -26.403,-27.057 -45,-33.5 -34.528,-11.607 -68.195,-9.774 -101,5.5 0,-1.333 0,-2.667 0,-4 3.483,0.584 6.483,-0.249 9,-2.5 5.908,-1.886 11.575,-4.219 17,-7 -3.317,-0.498 -6.65,-0.665 -10,-0.5 0,-1 0,-2 0,-3 4.055,0.324 8.055,-0.009 12,-1 1.435,-1.941 2.435,-3.608 3,-5 0.929,1.189 1.262,2.522 1,4 10.692,0.673 21.359,0.673 32,0 -0.076,-3.884 0.59,-7.55 2,-11 -6.426,0.62 -12.426,-0.047 -18,-2 6.077,0.304 12.077,-0.196 18,-1.5 -54.431,-16.214 -103.097,-6.048 -146,30.5 -2,1.667 -4,3.333 -6,5 -1.788,-0.285 -3.455,0.048 -5,1 -3.851,4.524 -8.518,7.857 -14,10 -2.401,-2.985 -2.067,-5.152 1,-6.5 -4.658,-3.83 -3.991,-5.33 2,-4.5 0.187,-2.064 0.687,-4.064 1.5,-6 4.78,-1.943 7.947,-5.276 9.5,-10 -1.333,0 -2.667,0 -4,0 1.411,-2.414 3.411,-4.081 6,-5 1.627,1.346 2.294,2.846 2,4.5 -1.774,2.364 -3.107,5.031 -4,8 0.924,1.15 0.924,2.15 0,3 0.5,0.167 1,0.333 1.5,0.5 2.863,-1.188 5.696,-2.188 8.5,-3 0.691,-4.279 3.691,-7.112 9,-8.5 3.222,-3.749 5.722,-7.916 7.5,-12.5 0.483,0.948 0.649,1.948 0.5,3 5.133,-1.949 10.466,-2.949 16,-3 0,-1 0,-2 0,-3 2.667,0 5.333,0 8,0 -0.02,-1.643 0.647,-2.976 2,-4 4.698,-1.241 9.031,-2.575 13,-4 2.378,-1.429 3.712,-3.262 4,-5.5 2.757,-0.782 5.257,-0.282 7.5,1.5 2.944,-0.757 5.944,-1.423 9,-2 6.701,1.971 13.534,2.471 20.5,1.5 -5.294,-0.818 -5.294,-1.318 0,-1.5 0,-1.667 0,-3.333 0,-5 10.641,-0.673 21.308,-0.673 32,0 0,1 0,2 0,3 3.682,-0.165 7.348,0.001 11,0.5 -0.691,1.067 -1.191,2.234 -1.5,3.5 -0.718,-0.951 -1.551,-1.117 -2.5,-0.5 2.607,2.105 5.607,2.938 9,2.5 -0.157,-1.373 0.01,-2.707 0.5,-4 4.234,4.402 9.401,6.735 15.5,7 3.589,1.466 6.922,3.466 10,6 1.896,0.966 3.896,1.299 6,1 -0.308,2.424 0.026,4.757 1,7 4.545,-1.053 9.045,-0.72 13.5,1 1.775,2.494 3.275,2.16 4.5,-1 -0.774,-1.211 -1.607,-1.211 -2.5,0 -0.202,-1.756 -0.702,-3.422 -1.5,-5 -2.111,-1.105 -3.445,-2.771 -4,-5 z m -202,19 c 1.333,0 2.667,0 4,0 -1.553,4.724 -4.72,8.057 -9.5,10 -0.813,1.936 -1.313,3.936 -1.5,6 -5.991,-0.83 -6.658,0.67 -2,4.5 -3.067,1.348 -3.401,3.515 -1,6.5 5.482,-2.143 10.149,-5.476 14,-10 1.545,-0.952 3.212,-1.285 5,-1 -12.285,12.273 -22.619,25.939 -31,41 -0.722,-0.418 -1.222,-1.084 -1.5,-2 -3.192,1.402 -6.359,2.902 -9.5,4.5 3.949,0.807 3.949,1.307 0,1.5 0.178,3.379 0.178,6.545 0,9.5 -0.333,0.167 -0.667,0.333 -1,0.5 -0.781,-1.229 -1.281,-2.562 -1.5,-4 -3.558,4.74 -8.058,8.074 -13.5,10 0,-1 0,-2 0,-3 2.159,-6.707 4.659,-13.374 7.5,-20 8.517,-15.707 18.517,-30.373 30,-44 3.41,-3.916 7.243,-7.249 11.5,-10 z m 94,15 c -49.778,34.325 -65.778,80.658 -48,139 -1.208,-0.734 -2.541,-1.067 -4,-1 -2.789,-7.919 -5.455,-15.919 -8,-24 0.825,-0.886 1.825,-1.219 3,-1 1.278,-7.501 1.278,-15.001 0,-22.5 1.619,-12.31 3.119,-24.477 4.5,-36.5 0.333,1 0.667,2 1,3 2.822,-4.474 4.655,-9.307 5.5,-14.5 -0.5,-0.5 -1,-1 -1.5,-1.5 -2.175,0.755 -4.341,1.588 -6.5,2.5 -1.878,3.674 -3.378,7.507 -4.5,11.5 -3.379,1.958 -6.879,3.624 -10.5,5 6.172,-21.362 17.172,-39.695 33,-55 1.466,0.847 2.3,2.18 2.5,4 2.526,3.405 5.026,3.572 7.5,0.5 -0.667,-0.333 -1.333,-0.667 -2,-1 1.5,-1.5 3,-3 4.5,-4.5 0.333,0.667 0.667,1.333 1,2 3.21,-1.976 6.543,-2.642 10,-2 1.27,-2.606 2.937,-4.939 5,-7 1.113,1.26 1.28,2.427 0.5,3.5 2.347,0.334 4.681,0.167 7,-0.5 z m -48,139 c 21.018,46.189 57.018,69.189 108,69 -8.818,0.993 -17.818,1.327 -27,1 0,3 0,6 0,9 3.294,-0.241 6.294,0.592 9,2.5 -0.333,0.333 -0.667,0.667 -1,1 1.339,2.016 3.172,3.183 5.5,3.5 9.139,-1.372 18.305,-2.538 27.5,-3.5 -0.457,-0.414 -0.791,-0.914 -1,-1.5 1.333,-0.333 2.667,-0.667 4,-1 5.986,2.393 10.652,0.893 14,-4.5 2.391,-0.287 4.724,-0.787 7,-1.5 0.667,0.333 1.333,0.667 2,1 3.538,-0.663 6.705,-1.997 9.5,-4 0.718,0.951 1.551,1.117 2.5,0.5 -3.65,-2.88 -2.983,-3.713 2,-2.5 1.314,-0.813 2.481,-1.813 3.5,-3 0.333,0.333 0.667,0.667 1,1 1.008,-1.759 2.508,-2.926 4.5,-3.5 -1.196,-0.654 -1.196,-1.154 0,-1.5 2.085,0.921 4.085,1.921 6,3 -29.124,19.19 -61.124,26.357 -96,21.5 -30.074,-6.528 -55.408,-21.028 -76,-43.5 -29.517,-36.084 -38.184,-76.751 -26,-122 3.621,-1.376 7.121,-3.042 10.5,-5 1.122,-3.993 2.622,-7.826 4.5,-11.5 2.159,-0.912 4.325,-1.745 6.5,-2.5 0.5,0.5 1,1 1.5,1.5 -0.845,5.193 -2.678,10.026 -5.5,14.5 -0.333,-1 -0.667,-2 -1,-3 -1.381,12.023 -2.881,24.19 -4.5,36.5 1.278,7.499 1.278,14.999 0,22.5 -1.175,-0.219 -2.175,0.114 -3,1 2.545,8.081 5.211,16.081 8,24 1.459,-0.067 2.792,0.266 4,1 z m 218,-26 c 1.25,-11.33 1.25,-22.663 0,-34 0.386,-4.376 -0.281,-8.543 -2,-12.5 0.939,-3.107 1.272,-6.441 1,-10 -2.352,-0.576 -3.352,-2.076 -3,-4.5 -0.065,-2.537 0.935,-4.537 3,-6 -1,-1.333 -2,-2.667 -3,-4 0.333,-0.333 0.667,-0.667 1,-1 4.268,3.191 7.601,7.191 10,12 0.586,-0.209 1.086,-0.543 1.5,-1 2.072,4.74 3.072,9.74 3,15 0.636,3.726 1.803,7.226 3.5,10.5 -0.235,0.873 -0.569,1.707 -1,2.5 0.774,1.211 1.607,1.211 2.5,0 0.471,1.746 1.138,3.413 2,5 0.27,18.884 -0.063,37.884 -1,57 -0.465,1.431 -1.299,2.597 -2.5,3.5 0.581,0.893 0.915,1.893 1,3 -1.767,4.032 -3.1,8.199 -4,12.5 -1.667,0 -3.333,0 -5,0 0,-7 0,-14 0,-21 -4.284,0.577 -7.284,-1.09 -9,-5 1.743,-7.211 2.41,-14.544 2,-22 z m -286,-71 c -19.862,42.226 -22.362,85.56 -7.5,130 29.419,68.956 81.586,103.123 156.5,102.5 8.126,-0.925 16.126,-2.425 24,-4.5 -4.46,1.852 -8.46,4.518 -12,8 -14.618,-0.983 -29.285,-1.317 -44,-1 0.219,1.175 -0.114,2.175 -1,3 0.011,-0.941 -0.489,-1.608 -1.5,-2 -1.789,0.909 -3.623,1.076 -5.5,0.5 0.667,-0.333 1.333,-0.667 2,-1 -2.888,-1.592 -5.721,-3.092 -8.5,-4.5 -6.883,1.362 -7.383,2.529 -1.5,3.5 -3.927,1.212 -7.927,2.212 -12,3 4.039,1.887 8.039,2.887 12,3 -0.667,0.333 -1.333,0.667 -2,1 5.502,0.289 10.502,1.956 15,5 9.182,1.392 18.182,1.225 27,-0.5 -7.972,-0.998 -15.972,-1.331 -24,-1 0,-2 0,-4 0,-6 10.667,0.333 21.333,0.667 32,1 0,2.333 0,4.667 0,7 14.498,-0.125 28.498,-2.792 42,-8 3.3,-3.147 7.3,-4.98 12,-5.5 -0.333,-0.333 -0.667,-0.667 -1,-1 3.56,-1.237 7.227,-1.737 11,-1.5 -0.443,-4.029 1.391,-6.029 5.5,-6 1.128,-1.845 1.628,-3.845 1.5,-6 -2.306,-0.493 -4.639,-0.826 -7,-1 0,-1 0,-2 0,-3 -1.667,0 -3.333,0 -5,0 10.844,-6.255 21.177,-13.255 31,-21 -0.912,1.238 -1.079,2.572 -0.5,4 3.783,-5.154 5.95,-4.821 6.5,1 2.027,-0.162 4.027,0.005 6,0.5 0.663,1.518 1.663,2.685 3,3.5 -15.742,15.053 -33.742,26.886 -54,35.5 -74.188,25.661 -138.021,9.828 -191.5,-47.5 -42.012,-51.711 -53.845,-109.711 -35.5,-174 0,1 0,2 0,3 5.442,-1.926 9.942,-5.26 13.5,-10 0.219,1.438 0.719,2.771 1.5,4 0.333,-0.167 0.667,-0.333 1,-0.5 0.178,-2.955 0.178,-6.121 0,-9.5 3.949,-0.193 3.949,-0.693 0,-1.5 3.141,-1.598 6.308,-3.098 9.5,-4.5 0.278,0.916 0.778,1.582 1.5,2 z" /></g><g
         id="g34" /><g
         id="g35" /><g
         id="g36" /><g
         id="g39" /><g
         id="g40" /><g
         id="g43" /><g
         id="g45" /><g
         id="g46" /><g
         id="g47" /><g
         id="g48" /><g
         id="g50" /><g
         id="g53" /><g
         id="g54" /><g
         id="g55"
         style="fill:#000000"
         transform="translate(26.428594,-159.96253)"><path
           id="path55"
           style="opacity:1;fill:#000000"
           d="m 735.33456,684.88349 c 0.749,6.721 -0.418,13.054 -3.5,19 -4.32,4.214 -8.82,8.047 -13.5,11.5 5.485,8.156 10.985,16.323 16.5,24.5 3.867,4.202 8.033,8.035 12.5,11.5 -0.333,0.333 -0.667,0.667 -1,1 -7.667,0.667 -15.333,0.667 -23,0 -5.958,-8.748 -11.791,-17.581 -17.5,-26.5 -2.687,-3.683 -5.687,-7.017 -9,-10 -1.128,-1.845 -1.628,-3.845 -1.5,-6 19.45,0.409 26.616,-8.591 21.5,-27 -2.876,-4.523 -7.043,-7.023 -12.5,-7.5 -3.986,-0.499 -7.986,-0.666 -12,-0.5 -0.128,20.676 -0.295,41.342 -0.5,62 0.39,5.788 3.057,10.122 8,13 0.483,0.948 0.649,1.948 0.5,3 -1.333,0 -2.667,0 -4,0 -8.667,0 -17.333,0 -26,0 -0.739,0.131 -1.406,-0.036 -2,-0.5 4.146,-2.803 6.646,-6.636 7.5,-11.5 0.5,-11.995 0.667,-23.995 0.5,-36 0.988,5.14 1.321,10.474 1,16 1,0 2,0 3,0 -0.166,8.007 0,16.007 0.5,24 2.173,-2.777 2.673,-2.61 1.5,0.5 0.525,0.692 1.192,1.192 2,1.5 3.784,-3.276 3.451,-6.443 -1,-9.5 1.599,-1.786 2.433,-3.953 2.5,-6.5 0.333,0.333 0.667,0.667 1,1 0.235,-3.82 1.068,-7.487 2.5,-11 1.042,-11.491 1.042,-22.991 0,-34.5 -0.187,-5.166 0.48,-10.166 2,-15 -2.667,-1 -2.667,-2 0,-3 -4.191,-0.922 -8.191,-0.588 -12,1 0.333,0.333 0.667,0.667 1,1 -2.447,1.229 -2.613,2.729 -0.5,4.5 0.499,4.655 0.666,9.321 0.5,14 -1.333,0 -2.667,0 -4,0 0.166,-4.346 -10e-4,-8.679 -0.5,-13 -0.935,-3.095 -2.769,-5.429 -5.5,-7 -5.613,-2.934 -5.279,-4.6 1,-5 13.985,0.763 27.985,1.263 42,1.5 11.025,2.535 18.359,9.035 22,19.5 z m -59,20 c 0,-5.333 0,-10.667 0,-16 1.333,0 2.667,0 4,0 0.166,-4.679 -10e-4,-9.345 -0.5,-14 -2.113,-1.771 -1.947,-3.271 0.5,-4.5 -0.333,-0.333 -0.667,-0.667 -1,-1 3.809,-1.588 7.809,-1.922 12,-1 -2.667,1 -2.667,2 0,3 -1.52,4.834 -2.187,9.834 -2,15 1.042,11.509 1.042,23.009 0,34.5 -1.432,3.513 -2.265,7.18 -2.5,11 -0.333,-0.333 -0.667,-0.667 -1,-1 -0.067,2.547 -0.901,4.714 -2.5,6.5 4.451,3.057 4.784,6.224 1,9.5 -0.808,-0.308 -1.475,-0.808 -2,-1.5 1.173,-3.11 0.673,-3.277 -1.5,-0.5 -0.5,-7.993 -0.666,-15.993 -0.5,-24 -1,0 -2,0 -3,0 0.321,-5.526 -0.012,-10.86 -1,-16 z m -110,-41 c 5.391,3.55 10.725,7.383 16,11.5 16.471,15.471 32.638,31.304 48.5,47.5 -0.303,-15.922 -0.636,-31.922 -1,-48 -2.788,-4.133 -6.288,-7.466 -10.5,-10 9.658,0.023 19.324,-0.311 29,-1 -2.926,3.788 -5.76,7.788 -8.5,12 -0.333,26.667 -0.667,53.333 -1,80 -21.617,-20.952 -42.617,-42.619 -63,-65 -0.667,16.333 -0.667,32.667 0,49 2.055,5.388 5.555,9.554 10.5,12.5 -10,0.667 -20,0.667 -30,0 3.508,-3.175 6.675,-6.675 9.5,-10.5 1.468,-23.345 1.468,-46.678 0,-70 -2.79,-2.965 -5.957,-5.298 -9.5,-7 3.542,0.313 6.875,-0.021 10,-1 z m -267,4 c 0.73,1.545 2.063,2.378 4,2.5 -2.667,0.667 -2.667,1.333 0,2 -1.561,0.318 -2.728,1.151 -3.5,2.5 -0.607,8.58 -1.773,17.08 -3.5,25.5 0.333,2.333 0.667,4.667 1,7 -1.387,5.153 -2.387,10.32 -3,15.5 0,-2.333 0,-4.667 0,-7 -0.048,-6.697 -0.548,-13.364 -1.5,-20 -0.573,2.141 -1.406,4.141 -2.5,6 -8.467,16.265 -17.467,32.265 -27,48 -6.541,-11.748 -12.541,-23.748 -18,-36 4.407,-0.354 6.407,1.979 6,7 2.333,0 4.667,0 7,0 -1.333,2.333 -1.333,4.667 0,7 3.869,0.351 7.369,1.684 10.5,4 2.554,-2.105 4.888,-4.439 7,-7 0.618,-4.387 -0.216,-8.387 -2.5,-12 2.424,-7.28 5.424,-14.28 9,-21 4.89,-8.555 10.556,-16.555 17,-24 z m -68,-3 c 15.003,15.976 26.503,34.31 34.5,55 0.718,0.951 1.551,1.117 2.5,0.5 1.318,-2.824 2.985,-5.324 5,-7.5 2.284,3.613 3.118,7.613 2.5,12 -2.112,2.561 -4.446,4.895 -7,7 -3.131,-2.316 -6.631,-3.649 -10.5,-4 -1.333,-2.333 -1.333,-4.667 0,-7 -2.333,0 -4.667,0 -7,0 0.407,-5.021 -1.593,-7.354 -6,-7 -3.502,-6.338 -7.002,-12.671 -10.5,-19 -1.444,15.976 -1.777,31.976 -1,48 1.29,3.74 3.457,6.907 6.5,9.5 -9.327,0.5 -18.661,0.666 -28,0.5 4.405,-3.806 7.572,-8.473 9.5,-14 2.535,-20.93 4.035,-41.93 4.5,-63 -1.648,-3.971 -4.648,-6.638 -9,-8 -0.886,-0.825 -1.219,-1.825 -1,-3 5,0 10,0 15,0 z m 125,56 c 1.598,4.211 3.932,7.878 7,11 1.125,1.629 2.459,3.129 4,4.5 10.849,7.133 21.849,7.3 33,0.5 2.357,0.163 4.69,-0.003 7,-0.5 0.561,-1.676 1.561,-3.009 3,-4 -1.333,-1.84 -1.166,-2.34 0.5,-1.5 1.664,-2.305 3.164,-1.972 4.5,1 -0.826,0.951 -0.992,1.951 -0.5,3 0.811,-1.46 1.645,-1.793 2.5,-1 -1.439,2.053 -3.439,3.053 -6,3 0,1.333 0,2.667 0,4 -3.018,-0.165 -6.018,0.002 -9,0.5 0.886,1.902 0.553,3.735 -1,5.5 -0.586,-0.209 -1.086,-0.543 -1.5,-1 -1.11,1.537 -2.61,2.203 -4.5,2 0.135,2.054 -0.532,3.721 -2,5 -6.92,1.128 -13.92,1.295 -21,0.5 -14.91,-4.105 -25.243,-13.272 -31,-27.5 0.591,-0.651 1.257,-1.318 2,-2 -0.116,-3.558 -0.282,-7.225 -0.5,-11 -1.003,2.435 -1.503,2.102 -1.5,-1 1.605,-1.324 2.271,-3.657 2,-7 2.619,-0.268 5.119,0.065 7.5,1 0.595,1.399 0.428,2.732 -0.5,4 2.528,1.017 2.528,2.184 0,3.5 2.14,2.173 2.474,4.673 1,7.5 1.667,0 3.333,0 5,0 z m 129,-57 c 5.344,-0.166 10.677,10e-4 16,0.5 4.114,0.115 7.781,1.282 11,3.5 -0.06,0.543 -0.393,0.876 -1,1 -2.444,-0.722 -4.778,-1.722 -7,-3 -4.234,0.318 -8.567,0.318 -13,0 0.269,1.929 -0.231,3.595 -1.5,5 -2.561,-0.612 -5.394,-0.779 -8.5,-0.5 -1.333,0.667 -1.333,1.333 0,2 -2.077,0.192 -4.077,0.692 -6,1.5 0.209,0.586 0.543,1.086 1,1.5 2.288,0.418 4.288,-0.249 6,-2 7,-0.667 14,-0.667 21,0 1.992,0.574 3.492,1.741 4.5,3.5 1.628,-0.597 3.295,-0.263 5,1 2.398,3.438 4.898,6.771 7.5,10 -0.825,0.886 -1.825,1.219 -3,1 -2.797,-2.295 -5.464,-4.795 -8,-7.5 -20.485,-11.676 -34.985,-6.509 -43.5,15.5 -0.886,8.107 -0.386,16.107 1.5,24 -3.023,0.395 -4.023,-0.605 -3,-3 -1.449,-6.269 -2.616,-12.602 -3.5,-19 -1.319,1.75 -1.819,3.75 -1.5,6 -2.333,0 -4.667,0 -7,0 -0.166,5.676 10e-4,11.343 0.5,17 1.47,4.274 3.47,8.274 6,12 0.49,1.293 0.657,2.627 0.5,4 -4.687,-4.697 -7.854,-10.364 -9.5,-17 -4.774,-18.268 -0.274,-33.602 13.5,-46 6.841,-4.754 14.175,-8.421 22,-11 z m -86,3 c -3.646,-0.783 -7.312,-0.95 -11,-0.5 0.667,0.333 1.333,0.667 2,1 -3.652,0.499 -7.318,0.665 -11,0.5 0,1.667 0,3.333 0,5 5.333,0 10.667,0 16,0 -0.149,1.052 0.017,2.052 0.5,3 4.488,1.765 7.821,4.765 10,9 0.333,-0.667 0.667,-1.333 1,-2 3.107,4.15 5.94,8.483 8.5,13 -0.209,0.586 -0.543,1.086 -1,1.5 0.959,1.707 1.625,3.541 2,5.5 -1.557,5.564 -2.557,11.231 -3,17 1.63,3.078 2.463,6.411 2.5,10 0.667,-1.333 1.333,-1.333 2,0 1,-1 2,-2 3,-3 0.549,-3.423 1.382,-6.756 2.5,-10 -0.702,-4.712 0.298,-9.212 3,-13.5 -0.578,-1.811 -1.078,-3.645 -1.5,-5.5 -2.949,-3 -4.449,-6.666 -4.5,-11 -4.89,-2.747 -7.557,-7.08 -8,-13 14.176,11.69 19.343,26.69 15.5,45 -5.873,15.704 -16.373,27.037 -31.5,34 -1,0 -2,0 -3,0 1.468,-1.279 2.135,-2.946 2,-5 1.89,0.203 3.39,-0.463 4.5,-2 0.414,0.457 0.914,0.791 1.5,1 1.553,-1.765 1.886,-3.598 1,-5.5 2.982,-0.498 5.982,-0.665 9,-0.5 0,-1.333 0,-2.667 0,-4 2.561,0.053 4.561,-0.947 6,-3 -0.855,-0.793 -1.689,-0.46 -2.5,1 -0.492,-1.049 -0.326,-2.049 0.5,-3 -1.336,-2.972 -2.836,-3.305 -4.5,-1 -1.666,-0.84 -1.833,-0.34 -0.5,1.5 -1.439,0.991 -2.439,2.324 -3,4 -2.31,0.497 -4.643,0.663 -7,0.5 8.433,-9.713 11.933,-21.046 10.5,-34 -2.29,-13.962 -10.123,-22.962 -23.5,-27 -15.243,-2.458 -25.743,3.542 -31.5,18 -2.06,9.051 -1.893,18.051 0.5,27 -1.667,0 -3.333,0 -5,0 1.474,-2.827 1.14,-5.327 -1,-7.5 2.528,-1.316 2.528,-2.483 0,-3.5 0.928,-1.268 1.095,-2.601 0.5,-4 -2.381,-0.935 -4.881,-1.268 -7.5,-1 0.271,3.343 -0.395,5.676 -2,7 -0.003,3.102 0.497,3.435 1.5,1 0.218,3.775 0.384,7.442 0.5,11 -0.743,0.682 -1.409,1.349 -2,2 -1,-2 -2,-4 -3,-6 -1.55,-9.087 -1.217,-18.087 1,-27 12.599,-25.495 32.599,-34.162 60,-26 z m 0,0 c 2.454,0.727 4.787,1.727 7,3 2.272,0.941 4.272,2.274 6,4 0.443,5.92 3.11,10.253 8,13 0.051,4.334 1.551,8 4.5,11 0.422,1.855 0.922,3.689 1.5,5.5 -2.702,4.288 -3.702,8.788 -3,13.5 -1.118,3.244 -1.951,6.577 -2.5,10 -1,1 -2,2 -3,3 -0.667,-1.333 -1.333,-1.333 -2,0 -0.037,-3.589 -0.87,-6.922 -2.5,-10 0.443,-5.769 1.443,-11.436 3,-17 -0.375,-1.959 -1.041,-3.793 -2,-5.5 0.457,-0.414 0.791,-0.914 1,-1.5 -2.56,-4.517 -5.393,-8.85 -8.5,-13 -0.333,0.667 -0.667,1.333 -1,2 -2.179,-4.235 -5.512,-7.235 -10,-9 -0.483,-0.948 -0.649,-1.948 -0.5,-3 -5.333,0 -10.667,0 -16,0 0,-1.667 0,-3.333 0,-5 3.682,0.165 7.348,-0.001 11,-0.5 -0.667,-0.333 -1.333,-0.667 -2,-1 3.688,-0.45 7.354,-0.283 11,0.5 z m -90,22 c 0.502,17.043 1.668,34.043 3.5,51 1.477,4.485 4.143,8.151 8,11 0.692,0.937 0.525,1.603 -0.5,2 -5.667,0 -11.333,0 -17,0 -5.375,0.328 -10.708,-0.005 -16,-1 3.844,-2.342 6.344,-5.675 7.5,-10 0.234,-6.333 0.068,-12.666 -0.5,-19 0.613,-5.18 1.613,-10.347 3,-15.5 -0.333,-2.333 -0.667,-4.667 -1,-7 1.727,-8.42 2.893,-16.92 3.5,-25.5 0.772,-1.349 1.939,-2.182 3.5,-2.5 -2.667,-0.667 -2.667,-1.333 0,-2 -1.937,-0.122 -3.27,-0.955 -4,-2.5 0.558,-1.29 1.558,-2.123 3,-2.5 3.711,-0.825 7.378,-0.659 11,0.5 -2.122,1.951 -3.622,4.285 -4.5,7 -0.817,5.516 -0.651,10.85 0.5,16 z m 203,-21 c 13.58,6.094 22.414,16.427 26.5,31 3.331,26.02 -7.169,43.686 -31.5,53 -2.198,0.375 -4.198,1.042 -6,2 -17.049,2.322 -31.049,-3.011 -42,-16 0.157,-1.373 -0.01,-2.707 -0.5,-4 -2.53,-3.726 -4.53,-7.726 -6,-12 -0.499,-5.657 -0.666,-11.324 -0.5,-17 2.333,0 4.667,0 7,0 -0.319,-2.25 0.181,-4.25 1.5,-6 0.884,6.398 2.051,12.731 3.5,19 -1.023,2.395 -0.023,3.395 3,3 8.001,18.999 21.668,24.832 41,17.5 15.272,-14.093 18.272,-30.593 9,-49.5 1.175,0.219 2.175,-0.114 3,-1 -2.602,-3.229 -5.102,-6.562 -7.5,-10 -1.705,-1.263 -3.372,-1.597 -5,-1 -1.008,-1.759 -2.508,-2.926 -4.5,-3.5 -7,-0.667 -14,-0.667 -21,0 -1.712,1.751 -3.712,2.418 -6,2 -0.457,-0.414 -0.791,-0.914 -1,-1.5 1.923,-0.808 3.923,-1.308 6,-1.5 -1.333,-0.667 -1.333,-1.333 0,-2 3.106,-0.279 5.939,-0.112 8.5,0.5 1.269,-1.405 1.769,-3.071 1.5,-5 4.433,0.318 8.766,0.318 13,0 2.222,1.278 4.556,2.278 7,3 0.607,-0.124 0.94,-0.457 1,-1 z" /></g></g></g></svg>
